<mxfile host="app.diagrams.net" modified="2023-10-14T19:57:19.732Z" agent="Mozilla/5.0 (X11; Linux x86_64) AppleWebKit/537.36 (KHTML, like Gecko) Chrome/117.0.0.0 Safari/537.36" version="22.0.4" etag="bg983nEsE9y6F8kaHURm" type="github">
  <diagram name="PÃ¡gina-1" id="5mT465sClJdXbGPTnjJI">
    <mxGraphModel>
      <root>
        <mxCell id="0" />
        <mxCell id="1" parent="0" />
      </root>
    </mxGraphModel>
  </diagram>
</mxfile>
